<?xml version="1.0" encoding="UTF-8" standalone="no"?>
<!DOCTYPE svg PUBLIC "-//W3C//DTD SVG 1.1//EN"
 "http://www.w3.org/Graphics/SVG/1.1/DTD/svg11.dtd">
<!-- Generated by graphviz version 2.43.0 (0)
 -->
<!-- Title: snakemake_dag Pages: 1 -->
<svg width="472pt" height="332pt"
 viewBox="0.00 0.00 471.50 332.00" xmlns="http://www.w3.org/2000/svg" xmlns:xlink="http://www.w3.org/1999/xlink">
<g id="graph0" class="graph" transform="scale(1 1) rotate(0) translate(4 328)">
<title>snakemake_dag</title>
<polygon fill="white" stroke="transparent" points="-4,4 -4,-328 467.5,-328 467.5,4 -4,4"/>
<!-- 0 -->
<g id="node1" class="node">
<title>0</title>
<path fill="none" stroke="#78d856" stroke-width="2" d="M247,-36C247,-36 217,-36 217,-36 211,-36 205,-30 205,-24 205,-24 205,-12 205,-12 205,-6 211,0 217,0 217,0 247,0 247,0 253,0 259,-6 259,-12 259,-12 259,-24 259,-24 259,-30 253,-36 247,-36"/>
<text text-anchor="middle" x="232" y="-15.5" font-family="sans" font-size="10.00">all</text>
</g>
<!-- 1 -->
<g id="node2" class="node">
<title>1</title>
<path fill="none" stroke="#bed856" stroke-width="2" d="M450,-108C450,-108 370,-108 370,-108 364,-108 358,-102 358,-96 358,-96 358,-84 358,-84 358,-78 364,-72 370,-72 370,-72 450,-72 450,-72 456,-72 462,-78 462,-84 462,-84 462,-96 462,-96 462,-102 456,-108 450,-108"/>
<text text-anchor="middle" x="410" y="-87.5" font-family="sans" font-size="10.00">report_step_reads</text>
</g>
<!-- 1&#45;&gt;0 -->
<g id="edge2" class="edge">
<title>1&#45;&gt;0</title>
<path fill="none" stroke="grey" stroke-width="2" d="M366.46,-71.88C336.44,-60.07 297,-44.56 268.61,-33.4"/>
<polygon fill="grey" stroke="grey" stroke-width="2" points="269.64,-30.04 259.06,-29.64 267.08,-36.56 269.64,-30.04"/>
</g>
<!-- 2 -->
<g id="node3" class="node">
<title>2</title>
<path fill="none" stroke="#68d856" stroke-width="2" d="M414,-180C414,-180 336,-180 336,-180 330,-180 324,-174 324,-168 324,-168 324,-156 324,-156 324,-150 330,-144 336,-144 336,-144 414,-144 414,-144 420,-144 426,-150 426,-156 426,-156 426,-168 426,-168 426,-174 420,-180 414,-180"/>
<text text-anchor="middle" x="375" y="-159.5" font-family="sans" font-size="10.00">reads_fastqc_one</text>
</g>
<!-- 2&#45;&gt;1 -->
<g id="edge5" class="edge">
<title>2&#45;&gt;1</title>
<path fill="none" stroke="grey" stroke-width="2" d="M383.65,-143.7C387.64,-135.73 392.45,-126.1 396.87,-117.26"/>
<polygon fill="grey" stroke="grey" stroke-width="2" points="400.11,-118.61 401.45,-108.1 393.85,-115.48 400.11,-118.61"/>
</g>
<!-- 12 -->
<g id="node13" class="node">
<title>12</title>
<path fill="none" stroke="#d8ac56" stroke-width="2" d="M214,-108C214,-108 132,-108 132,-108 126,-108 120,-102 120,-96 120,-96 120,-84 120,-84 120,-78 126,-72 132,-72 132,-72 214,-72 214,-72 220,-72 226,-78 226,-84 226,-84 226,-96 226,-96 226,-102 220,-108 214,-108"/>
<text text-anchor="middle" x="173" y="-87.5" font-family="sans" font-size="10.00">report_library_one</text>
</g>
<!-- 2&#45;&gt;12 -->
<g id="edge19" class="edge">
<title>2&#45;&gt;12</title>
<path fill="none" stroke="grey" stroke-width="2" d="M325.84,-143.97C297.5,-134.14 261.68,-121.73 231.84,-111.39"/>
<polygon fill="grey" stroke="grey" stroke-width="2" points="232.97,-108.08 222.38,-108.11 230.68,-114.69 232.97,-108.08"/>
</g>
<!-- 3 -->
<g id="node4" class="node">
<title>3</title>
<path fill="none" stroke="#d88d56" stroke-width="2" d="M201,-324C201,-324 135,-324 135,-324 129,-324 123,-318 123,-312 123,-312 123,-300 123,-300 123,-294 129,-288 135,-288 135,-288 201,-288 201,-288 207,-288 213,-294 213,-300 213,-300 213,-312 213,-312 213,-318 207,-324 201,-324"/>
<text text-anchor="middle" x="168" y="-303.5" font-family="sans" font-size="10.00">reads_link_one</text>
</g>
<!-- 3&#45;&gt;2 -->
<g id="edge6" class="edge">
<title>3&#45;&gt;2</title>
<path fill="none" stroke="grey" stroke-width="2" d="M182.26,-287.86C201.42,-265.15 234.8,-226.71 250,-216 269.47,-202.28 293.05,-191.14 314.45,-182.67"/>
<polygon fill="grey" stroke="grey" stroke-width="2" points="315.71,-185.94 323.79,-179.09 313.2,-179.4 315.71,-185.94"/>
</g>
<!-- 5 -->
<g id="node6" class="node">
<title>5</title>
<path fill="none" stroke="#56d0d8" stroke-width="2" d="M191,-252C191,-252 125,-252 125,-252 119,-252 113,-246 113,-240 113,-240 113,-228 113,-228 113,-222 119,-216 125,-216 125,-216 191,-216 191,-216 197,-216 203,-222 203,-228 203,-228 203,-240 203,-240 203,-246 197,-252 191,-252"/>
<text text-anchor="middle" x="158" y="-231.5" font-family="sans" font-size="10.00">fastp_trim_one</text>
</g>
<!-- 3&#45;&gt;5 -->
<g id="edge9" class="edge">
<title>3&#45;&gt;5</title>
<path fill="none" stroke="grey" stroke-width="2" d="M165.53,-287.7C164.43,-279.98 163.1,-270.71 161.87,-262.11"/>
<polygon fill="grey" stroke="grey" stroke-width="2" points="165.32,-261.51 160.44,-252.1 158.39,-262.5 165.32,-261.51"/>
</g>
<!-- 4 -->
<g id="node5" class="node">
<title>4</title>
<path fill="none" stroke="#d86656" stroke-width="2" d="M90,-108C90,-108 12,-108 12,-108 6,-108 0,-102 0,-96 0,-96 0,-84 0,-84 0,-78 6,-72 12,-72 12,-72 90,-72 90,-72 96,-72 102,-78 102,-84 102,-84 102,-96 102,-96 102,-102 96,-108 90,-108"/>
<text text-anchor="middle" x="51" y="-87.5" font-family="sans" font-size="10.00">report_step_fastp</text>
</g>
<!-- 4&#45;&gt;0 -->
<g id="edge3" class="edge">
<title>4&#45;&gt;0</title>
<path fill="none" stroke="grey" stroke-width="2" d="M95.28,-71.88C126.02,-59.98 166.5,-44.33 195.42,-33.15"/>
<polygon fill="grey" stroke="grey" stroke-width="2" points="196.69,-36.41 204.75,-29.54 194.16,-29.88 196.69,-36.41"/>
</g>
<!-- 5&#45;&gt;4 -->
<g id="edge8" class="edge">
<title>5&#45;&gt;4</title>
<path fill="none" stroke="grey" stroke-width="2" d="M112.74,-221.96C90.76,-214.09 66.29,-201.07 53,-180 41.5,-161.78 41.93,-137.01 44.71,-118.23"/>
<polygon fill="grey" stroke="grey" stroke-width="2" points="48.19,-118.68 46.49,-108.22 41.29,-117.45 48.19,-118.68"/>
</g>
<!-- 6 -->
<g id="node7" class="node">
<title>6</title>
<path fill="none" stroke="#56a9d8" stroke-width="2" d="M150,-180C150,-180 74,-180 74,-180 68,-180 62,-174 62,-168 62,-168 62,-156 62,-156 62,-150 68,-144 74,-144 74,-144 150,-144 150,-144 156,-144 162,-150 162,-156 162,-156 162,-168 162,-168 162,-174 156,-180 150,-180"/>
<text text-anchor="middle" x="112" y="-159.5" font-family="sans" font-size="10.00">fastp_fastqc_one</text>
</g>
<!-- 5&#45;&gt;6 -->
<g id="edge10" class="edge">
<title>5&#45;&gt;6</title>
<path fill="none" stroke="grey" stroke-width="2" d="M146.63,-215.7C141.28,-207.56 134.8,-197.69 128.89,-188.7"/>
<polygon fill="grey" stroke="grey" stroke-width="2" points="131.66,-186.54 123.24,-180.1 125.81,-190.38 131.66,-186.54"/>
</g>
<!-- 8 -->
<g id="node9" class="node">
<title>8</title>
<path fill="none" stroke="#56c1d8" stroke-width="2" d="M294,-180C294,-180 230,-180 230,-180 224,-180 218,-174 218,-168 218,-168 218,-156 218,-156 218,-150 224,-144 230,-144 230,-144 294,-144 294,-144 300,-144 306,-150 306,-156 306,-156 306,-168 306,-168 306,-174 300,-180 294,-180"/>
<text text-anchor="middle" x="262" y="-159.5" font-family="sans" font-size="10.00">star_align_one</text>
</g>
<!-- 5&#45;&gt;8 -->
<g id="edge12" class="edge">
<title>5&#45;&gt;8</title>
<path fill="none" stroke="grey" stroke-width="2" d="M183.44,-215.88C196.79,-206.89 213.32,-195.76 227.78,-186.03"/>
<polygon fill="grey" stroke="grey" stroke-width="2" points="230.12,-188.68 236.46,-180.19 226.21,-182.87 230.12,-188.68"/>
</g>
<!-- 5&#45;&gt;12 -->
<g id="edge17" class="edge">
<title>5&#45;&gt;12</title>
<path fill="none" stroke="grey" stroke-width="2" d="M163.17,-215.99C166.06,-205.69 169.39,-192.21 171,-180 173.72,-159.44 174.14,-135.99 173.92,-118.32"/>
<polygon fill="grey" stroke="grey" stroke-width="2" points="177.42,-118.08 173.72,-108.15 170.42,-118.21 177.42,-118.08"/>
</g>
<!-- 6&#45;&gt;4 -->
<g id="edge7" class="edge">
<title>6&#45;&gt;4</title>
<path fill="none" stroke="grey" stroke-width="2" d="M96.92,-143.7C89.61,-135.3 80.69,-125.07 72.66,-115.86"/>
<polygon fill="grey" stroke="grey" stroke-width="2" points="75.11,-113.34 65.91,-108.1 69.84,-117.94 75.11,-113.34"/>
</g>
<!-- 6&#45;&gt;12 -->
<g id="edge16" class="edge">
<title>6&#45;&gt;12</title>
<path fill="none" stroke="grey" stroke-width="2" d="M127.08,-143.7C134.39,-135.3 143.31,-125.07 151.34,-115.86"/>
<polygon fill="grey" stroke="grey" stroke-width="2" points="154.16,-117.94 158.09,-108.1 148.89,-113.34 154.16,-117.94"/>
</g>
<!-- 7 -->
<g id="node8" class="node">
<title>7</title>
<path fill="none" stroke="#56d86b" stroke-width="2" d="M328,-108C328,-108 256,-108 256,-108 250,-108 244,-102 244,-96 244,-96 244,-84 244,-84 244,-78 250,-72 256,-72 256,-72 328,-72 328,-72 334,-72 340,-78 340,-84 340,-84 340,-96 340,-96 340,-102 334,-108 328,-108"/>
<text text-anchor="middle" x="292" y="-87.5" font-family="sans" font-size="10.00">report_step_star</text>
</g>
<!-- 7&#45;&gt;0 -->
<g id="edge1" class="edge">
<title>7&#45;&gt;0</title>
<path fill="none" stroke="grey" stroke-width="2" d="M277.17,-71.7C269.98,-63.3 261.2,-53.07 253.31,-43.86"/>
<polygon fill="grey" stroke="grey" stroke-width="2" points="255.83,-41.42 246.66,-36.1 250.51,-45.97 255.83,-41.42"/>
</g>
<!-- 8&#45;&gt;7 -->
<g id="edge11" class="edge">
<title>8&#45;&gt;7</title>
<path fill="none" stroke="grey" stroke-width="2" d="M269.42,-143.7C272.79,-135.81 276.87,-126.3 280.62,-117.55"/>
<polygon fill="grey" stroke="grey" stroke-width="2" points="283.95,-118.67 284.67,-108.1 277.51,-115.92 283.95,-118.67"/>
</g>
<!-- 8&#45;&gt;12 -->
<g id="edge18" class="edge">
<title>8&#45;&gt;12</title>
<path fill="none" stroke="grey" stroke-width="2" d="M240,-143.7C228.79,-134.88 215,-124.03 202.85,-114.47"/>
<polygon fill="grey" stroke="grey" stroke-width="2" points="204.77,-111.54 194.75,-108.1 200.44,-117.04 204.77,-111.54"/>
</g>
<!-- 9 -->
<g id="node10" class="node">
<title>9</title>
<path fill="none" stroke="#afd856" stroke-width="2" d="M315,-252C315,-252 271,-252 271,-252 265,-252 259,-246 259,-240 259,-240 259,-228 259,-228 259,-222 265,-216 271,-216 271,-216 315,-216 315,-216 321,-216 327,-222 327,-228 327,-228 327,-240 327,-240 327,-246 321,-252 315,-252"/>
<text text-anchor="middle" x="293" y="-231.5" font-family="sans" font-size="10.00">star_index</text>
</g>
<!-- 9&#45;&gt;8 -->
<g id="edge13" class="edge">
<title>9&#45;&gt;8</title>
<path fill="none" stroke="grey" stroke-width="2" d="M285.34,-215.7C281.81,-207.73 277.54,-198.1 273.63,-189.26"/>
<polygon fill="grey" stroke="grey" stroke-width="2" points="276.82,-187.83 269.57,-180.1 270.42,-190.67 276.82,-187.83"/>
</g>
<!-- 10 -->
<g id="node11" class="node">
<title>10</title>
<path fill="none" stroke="#d87556" stroke-width="2" d="M451.5,-324C451.5,-324 368.5,-324 368.5,-324 362.5,-324 356.5,-318 356.5,-312 356.5,-312 356.5,-300 356.5,-300 356.5,-294 362.5,-288 368.5,-288 368.5,-288 451.5,-288 451.5,-288 457.5,-288 463.5,-294 463.5,-300 463.5,-300 463.5,-312 463.5,-312 463.5,-318 457.5,-324 451.5,-324"/>
<text text-anchor="middle" x="410" y="-303.5" font-family="sans" font-size="10.00">reference_set_dna</text>
</g>
<!-- 10&#45;&gt;9 -->
<g id="edge14" class="edge">
<title>10&#45;&gt;9</title>
<path fill="none" stroke="grey" stroke-width="2" d="M381.38,-287.88C366.08,-278.72 347.06,-267.34 330.58,-257.48"/>
<polygon fill="grey" stroke="grey" stroke-width="2" points="332.11,-254.32 321.73,-252.19 328.52,-260.33 332.11,-254.32"/>
</g>
<!-- 11 -->
<g id="node12" class="node">
<title>11</title>
<path fill="none" stroke="#56d8a9" stroke-width="2" d="M326,-324C326,-324 248,-324 248,-324 242,-324 236,-318 236,-312 236,-312 236,-300 236,-300 236,-294 242,-288 248,-288 248,-288 326,-288 326,-288 332,-288 338,-294 338,-300 338,-300 338,-312 338,-312 338,-318 332,-324 326,-324"/>
<text text-anchor="middle" x="287" y="-303.5" font-family="sans" font-size="10.00">reference_set_gtf</text>
</g>
<!-- 11&#45;&gt;9 -->
<g id="edge15" class="edge">
<title>11&#45;&gt;9</title>
<path fill="none" stroke="grey" stroke-width="2" d="M288.48,-287.7C289.14,-279.98 289.94,-270.71 290.68,-262.11"/>
<polygon fill="grey" stroke="grey" stroke-width="2" points="294.17,-262.37 291.53,-252.1 287.19,-261.77 294.17,-262.37"/>
</g>
<!-- 12&#45;&gt;0 -->
<g id="edge4" class="edge">
<title>12&#45;&gt;0</title>
<path fill="none" stroke="grey" stroke-width="2" d="M187.58,-71.7C194.66,-63.3 203.28,-53.07 211.05,-43.86"/>
<polygon fill="grey" stroke="grey" stroke-width="2" points="213.81,-46.01 217.58,-36.1 208.46,-41.49 213.81,-46.01"/>
</g>
</g>
</svg>
