<?xml version="1.0" encoding="UTF-8" standalone="no"?>
<!DOCTYPE svg PUBLIC "-//W3C//DTD SVG 1.1//EN"
 "http://www.w3.org/Graphics/SVG/1.1/DTD/svg11.dtd">
<!-- Generated by graphviz version 2.43.0 (0)
 -->
<!-- Title: ht_quant Pages: 1 -->
<svg width="278pt" height="207pt"
 viewBox="0.00 0.00 278.00 207.00" xmlns="http://www.w3.org/2000/svg" xmlns:xlink="http://www.w3.org/1999/xlink">
<g id="graph0" class="graph" transform="scale(1 1) rotate(0) translate(4 203)">
<title>ht_quant</title>
<polygon fill="white" stroke="transparent" points="-4,4 -4,-203 274,-203 274,4 -4,4"/>
<g id="clust1" class="cluster">
<title>cluster_0</title>
<path fill="white" stroke="black" stroke-width="2" d="M20,-8C20,-8 70,-8 70,-8 76,-8 82,-14 82,-20 82,-20 82,-179 82,-179 82,-185 76,-191 70,-191 70,-191 20,-191 20,-191 14,-191 8,-185 8,-179 8,-179 8,-20 8,-20 8,-14 14,-8 20,-8"/>
<text text-anchor="middle" x="45" y="-179" font-family="sans" font-size="10.00">Input</text>
</g>
<g id="clust2" class="cluster">
<title>cluster_1</title>
<path fill="white" stroke="black" stroke-width="2" d="M110,-113C110,-113 160,-113 160,-113 166,-113 172,-119 172,-125 172,-125 172,-176 172,-176 172,-182 166,-188 160,-188 160,-188 110,-188 110,-188 104,-188 98,-182 98,-176 98,-176 98,-125 98,-125 98,-119 104,-113 110,-113"/>
<text text-anchor="middle" x="135" y="-176" font-family="sans" font-size="10.00">Preprocess</text>
</g>
<g id="clust3" class="cluster">
<title>cluster_2</title>
<path fill="white" stroke="black" stroke-width="2" d="M200,-62C200,-62 250,-62 250,-62 256,-62 262,-68 262,-74 262,-74 262,-125 262,-125 262,-131 256,-137 250,-137 250,-137 200,-137 200,-137 194,-137 188,-131 188,-125 188,-125 188,-74 188,-74 188,-68 194,-62 200,-62"/>
<text text-anchor="middle" x="225" y="-125" font-family="sans" font-size="10.00">Quantify</text>
</g>
<!-- reads -->
<g id="node1" class="node">
<title>reads</title>
<path fill="none" stroke="#5692d8" stroke-width="2" d="M60,-162C60,-162 30,-162 30,-162 24,-162 18,-156 18,-150 18,-150 18,-138 18,-138 18,-132 24,-126 30,-126 30,-126 60,-126 60,-126 66,-126 72,-132 72,-138 72,-138 72,-150 72,-150 72,-156 66,-162 60,-162"/>
<text text-anchor="middle" x="45" y="-147" font-family="sans" font-size="10.00">FASTQ</text>
<text text-anchor="middle" x="45" y="-136" font-family="sans" font-size="10.00">reads</text>
</g>
<!-- fastp -->
<g id="node4" class="node">
<title>fastp</title>
<path fill="none" stroke="#566bd8" stroke-width="2" d="M150,-159C150,-159 120,-159 120,-159 114,-159 108,-153 108,-147 108,-147 108,-135 108,-135 108,-129 114,-123 120,-123 120,-123 150,-123 150,-123 156,-123 162,-129 162,-135 162,-135 162,-147 162,-147 162,-153 156,-159 150,-159"/>
<text text-anchor="middle" x="135" y="-138.5" font-family="sans" font-size="10.00">fastp</text>
</g>
<!-- reads&#45;&gt;fastp -->
<g id="edge1" class="edge">
<title>reads&#45;&gt;fastp</title>
<path fill="none" stroke="grey" stroke-width="2" d="M72.4,-143.1C80.39,-142.83 89.31,-142.52 97.82,-142.23"/>
<polygon fill="grey" stroke="grey" stroke-width="2" points="98.04,-145.73 107.92,-141.89 97.81,-138.73 98.04,-145.73"/>
</g>
<!-- host_fasta -->
<g id="node2" class="node">
<title>host_fasta</title>
<path fill="none" stroke="#d88d56" stroke-width="2" d="M60,-108C60,-108 30,-108 30,-108 24,-108 18,-102 18,-96 18,-96 18,-84 18,-84 18,-78 24,-72 30,-72 30,-72 60,-72 60,-72 66,-72 72,-78 72,-84 72,-84 72,-96 72,-96 72,-102 66,-108 60,-108"/>
<text text-anchor="middle" x="45" y="-93" font-family="sans" font-size="10.00">Host</text>
<text text-anchor="middle" x="45" y="-82" font-family="sans" font-size="10.00">Fasta</text>
</g>
<!-- star -->
<g id="node5" class="node">
<title>star</title>
<path fill="none" stroke="#d86656" stroke-width="2" d="M240,-108C240,-108 210,-108 210,-108 204,-108 198,-102 198,-96 198,-96 198,-84 198,-84 198,-78 204,-72 210,-72 210,-72 240,-72 240,-72 246,-72 252,-78 252,-84 252,-84 252,-96 252,-96 252,-102 246,-108 240,-108"/>
<text text-anchor="middle" x="225" y="-93" font-family="sans" font-size="10.00">STAR</text>
<text text-anchor="middle" x="225" y="-82" font-family="sans" font-size="10.00">MAGs</text>
</g>
<!-- host_fasta&#45;&gt;star -->
<g id="edge2" class="edge">
<title>host_fasta&#45;&gt;star</title>
<path fill="none" stroke="grey" stroke-width="2" d="M72.26,-90C102.85,-90 153.55,-90 187.84,-90"/>
<polygon fill="grey" stroke="grey" stroke-width="2" points="187.92,-93.5 197.92,-90 187.92,-86.5 187.92,-93.5"/>
</g>
<!-- host_gtf -->
<g id="node3" class="node">
<title>host_gtf</title>
<path fill="none" stroke="#d8cb56" stroke-width="2" d="M60,-54C60,-54 30,-54 30,-54 24,-54 18,-48 18,-42 18,-42 18,-30 18,-30 18,-24 24,-18 30,-18 30,-18 60,-18 60,-18 66,-18 72,-24 72,-30 72,-30 72,-42 72,-42 72,-48 66,-54 60,-54"/>
<text text-anchor="middle" x="45" y="-39" font-family="sans" font-size="10.00">Host</text>
<text text-anchor="middle" x="45" y="-28" font-family="sans" font-size="10.00">GTF</text>
</g>
<!-- host_gtf&#45;&gt;star -->
<g id="edge3" class="edge">
<title>host_gtf&#45;&gt;star</title>
<path fill="none" stroke="grey" stroke-width="2" d="M72.26,-43.97C102.98,-53.29 153.99,-68.76 188.29,-79.17"/>
<polygon fill="grey" stroke="grey" stroke-width="2" points="187.33,-82.53 197.92,-82.09 189.36,-75.83 187.33,-82.53"/>
</g>
<!-- fastp&#45;&gt;star -->
<g id="edge4" class="edge">
<title>fastp&#45;&gt;star</title>
<path fill="none" stroke="grey" stroke-width="2" d="M162.4,-125.7C170.83,-120.81 180.29,-115.33 189.22,-110.15"/>
<polygon fill="grey" stroke="grey" stroke-width="2" points="191.02,-113.16 197.92,-105.12 187.51,-107.1 191.02,-113.16"/>
</g>
</g>
</svg>
