<?xml version="1.0" encoding="UTF-8" standalone="no"?>
<!DOCTYPE svg PUBLIC "-//W3C//DTD SVG 1.1//EN"
 "http://www.w3.org/Graphics/SVG/1.1/DTD/svg11.dtd">
<!-- Generated by graphviz version 2.43.0 (0)
 -->
<!-- Title: snakemake_dag Pages: 1 -->
<svg width="1187pt" height="548pt"
 viewBox="0.00 0.00 1186.60 548.00" xmlns="http://www.w3.org/2000/svg" xmlns:xlink="http://www.w3.org/1999/xlink">
<g id="graph0" class="graph" transform="scale(1 1) rotate(0) translate(4 544)">
<title>snakemake_dag</title>
<polygon fill="white" stroke="transparent" points="-4,4 -4,-544 1182.6,-544 1182.6,4 -4,4"/>
<!-- 0 -->
<g id="node1" class="node">
<title>0</title>
<path fill="none" stroke="#97d856" stroke-width="2" d="M515,-36C515,-36 485,-36 485,-36 479,-36 473,-30 473,-24 473,-24 473,-12 473,-12 473,-6 479,0 485,0 485,0 515,0 515,0 521,0 527,-6 527,-12 527,-12 527,-24 527,-24 527,-30 521,-36 515,-36"/>
<text text-anchor="middle" x="500" y="-15.5" font-family="sans" font-size="10.00">all</text>
</g>
<!-- 1 -->
<g id="node2" class="node">
<title>1</title>
<path fill="none" stroke="#56d8b1" stroke-width="2" d="M404.5,-324C404.5,-324 339.5,-324 339.5,-324 333.5,-324 327.5,-318 327.5,-312 327.5,-312 327.5,-300 327.5,-300 327.5,-294 333.5,-288 339.5,-288 339.5,-288 404.5,-288 404.5,-288 410.5,-288 416.5,-294 416.5,-300 416.5,-300 416.5,-312 416.5,-312 416.5,-318 410.5,-324 404.5,-324"/>
<text text-anchor="middle" x="372" y="-303.5" font-family="sans" font-size="10.00">star_cram_one</text>
</g>
<!-- 1&#45;&gt;0 -->
<g id="edge9" class="edge">
<title>1&#45;&gt;0</title>
<path fill="none" stroke="grey" stroke-width="2" d="M343.69,-287.82C300.56,-259.34 226.47,-199.93 257,-144 298.73,-67.56 405.57,-36.47 462.68,-25"/>
<polygon fill="grey" stroke="grey" stroke-width="2" points="463.57,-28.39 472.74,-23.08 462.26,-21.52 463.57,-28.39"/>
</g>
<!-- 8 -->
<g id="node9" class="node">
<title>8</title>
<path fill="none" stroke="#d8c356" stroke-width="2" d="M529.5,-180C529.5,-180 432.5,-180 432.5,-180 426.5,-180 420.5,-174 420.5,-168 420.5,-168 420.5,-156 420.5,-156 420.5,-150 426.5,-144 432.5,-144 432.5,-144 529.5,-144 529.5,-144 535.5,-144 541.5,-150 541.5,-156 541.5,-156 541.5,-168 541.5,-168 541.5,-174 535.5,-180 529.5,-180"/>
<text text-anchor="middle" x="481" y="-159.5" font-family="sans" font-size="10.00">samtools_stats_cram</text>
</g>
<!-- 1&#45;&gt;8 -->
<g id="edge19" class="edge">
<title>1&#45;&gt;8</title>
<path fill="none" stroke="grey" stroke-width="2" d="M371.7,-287.97C372.19,-268.76 375.57,-237.41 391,-216 400.22,-203.21 413.56,-192.99 427.16,-185.08"/>
<polygon fill="grey" stroke="grey" stroke-width="2" points="428.98,-188.07 436.09,-180.2 425.63,-181.92 428.98,-188.07"/>
</g>
<!-- 9 -->
<g id="node10" class="node">
<title>9</title>
<path fill="none" stroke="#5682d8" stroke-width="2" d="M512,-252C512,-252 412,-252 412,-252 406,-252 400,-246 400,-240 400,-240 400,-228 400,-228 400,-222 406,-216 412,-216 412,-216 512,-216 512,-216 518,-216 524,-222 524,-228 524,-228 524,-240 524,-240 524,-246 518,-252 512,-252"/>
<text text-anchor="middle" x="462" y="-231.5" font-family="sans" font-size="10.00">samtools_index_cram</text>
</g>
<!-- 1&#45;&gt;9 -->
<g id="edge21" class="edge">
<title>1&#45;&gt;9</title>
<path fill="none" stroke="grey" stroke-width="2" d="M394.25,-287.7C405.58,-278.88 419.53,-268.03 431.82,-258.47"/>
<polygon fill="grey" stroke="grey" stroke-width="2" points="434.26,-261.01 440.01,-252.1 429.97,-255.48 434.26,-261.01"/>
</g>
<!-- 10 -->
<g id="node11" class="node">
<title>10</title>
<path fill="none" stroke="#56d892" stroke-width="2" d="M686.5,-180C686.5,-180 571.5,-180 571.5,-180 565.5,-180 559.5,-174 559.5,-168 559.5,-168 559.5,-156 559.5,-156 559.5,-150 565.5,-144 571.5,-144 571.5,-144 686.5,-144 686.5,-144 692.5,-144 698.5,-150 698.5,-156 698.5,-156 698.5,-168 698.5,-168 698.5,-174 692.5,-180 686.5,-180"/>
<text text-anchor="middle" x="629" y="-159.5" font-family="sans" font-size="10.00">samtools_flagstats_cram</text>
</g>
<!-- 1&#45;&gt;10 -->
<g id="edge22" class="edge">
<title>1&#45;&gt;10</title>
<path fill="none" stroke="grey" stroke-width="2" d="M416.53,-295.8C450.12,-287.6 496.5,-273.52 533,-252 562.21,-234.78 589.98,-207.4 608.07,-187.55"/>
<polygon fill="grey" stroke="grey" stroke-width="2" points="610.68,-189.88 614.74,-180.09 605.46,-185.21 610.68,-189.88"/>
</g>
<!-- 11 -->
<g id="node12" class="node">
<title>11</title>
<path fill="none" stroke="#56d863" stroke-width="2" d="M390,-180C390,-180 278,-180 278,-180 272,-180 266,-174 266,-168 266,-168 266,-156 266,-156 266,-150 272,-144 278,-144 278,-144 390,-144 390,-144 396,-144 402,-150 402,-156 402,-156 402,-168 402,-168 402,-174 396,-180 390,-180"/>
<text text-anchor="middle" x="334" y="-159.5" font-family="sans" font-size="10.00">samtools_idxstats_cram</text>
</g>
<!-- 1&#45;&gt;11 -->
<g id="edge24" class="edge">
<title>1&#45;&gt;11</title>
<path fill="none" stroke="grey" stroke-width="2" d="M367.42,-287.87C360.91,-263.56 348.94,-218.82 341.23,-190.01"/>
<polygon fill="grey" stroke="grey" stroke-width="2" points="344.57,-188.94 338.6,-180.19 337.8,-190.75 344.57,-188.94"/>
</g>
<!-- 2 -->
<g id="node3" class="node">
<title>2</title>
<path fill="none" stroke="#bed856" stroke-width="2" d="M362,-396C362,-396 298,-396 298,-396 292,-396 286,-390 286,-384 286,-384 286,-372 286,-372 286,-366 292,-360 298,-360 298,-360 362,-360 362,-360 368,-360 374,-366 374,-372 374,-372 374,-384 374,-384 374,-390 368,-396 362,-396"/>
<text text-anchor="middle" x="330" y="-375.5" font-family="sans" font-size="10.00">star_align_one</text>
</g>
<!-- 2&#45;&gt;0 -->
<g id="edge3" class="edge">
<title>2&#45;&gt;0</title>
<path fill="none" stroke="grey" stroke-width="2" d="M285.86,-361.67C236.08,-341.24 162,-299.92 162,-235 162,-235 162,-235 162,-161 162,-31.64 375.03,-18.18 462.85,-18.12"/>
<polygon fill="grey" stroke="grey" stroke-width="2" points="462.89,-21.62 472.91,-18.18 462.93,-14.62 462.89,-21.62"/>
</g>
<!-- 2&#45;&gt;1 -->
<g id="edge12" class="edge">
<title>2&#45;&gt;1</title>
<path fill="none" stroke="grey" stroke-width="2" d="M340.38,-359.7C345.26,-351.56 351.19,-341.69 356.58,-332.7"/>
<polygon fill="grey" stroke="grey" stroke-width="2" points="359.59,-334.48 361.74,-324.1 353.59,-330.88 359.59,-334.48"/>
</g>
<!-- 12 -->
<g id="node13" class="node">
<title>12</title>
<path fill="none" stroke="#56d8c1" stroke-width="2" d="M122,-252C122,-252 12,-252 12,-252 6,-252 0,-246 0,-240 0,-240 0,-228 0,-228 0,-222 6,-216 12,-216 12,-216 122,-216 122,-216 128,-216 134,-222 134,-228 134,-228 134,-240 134,-240 134,-246 128,-252 122,-252"/>
<text text-anchor="middle" x="67" y="-231.5" font-family="sans" font-size="10.00">star_create_count_table</text>
</g>
<!-- 2&#45;&gt;12 -->
<g id="edge26" class="edge">
<title>2&#45;&gt;12</title>
<path fill="none" stroke="grey" stroke-width="2" d="M285.69,-371.04C247.01,-364.29 190.58,-350.57 148,-324 121.75,-307.62 98.77,-280.41 84.05,-260.38"/>
<polygon fill="grey" stroke="grey" stroke-width="2" points="86.74,-258.12 78.08,-252.02 81.04,-262.19 86.74,-258.12"/>
</g>
<!-- 18 -->
<g id="node19" class="node">
<title>18</title>
<path fill="none" stroke="#d8d356" stroke-width="2" d="M498,-108C498,-108 426,-108 426,-108 420,-108 414,-102 414,-96 414,-96 414,-84 414,-84 414,-78 420,-72 426,-72 426,-72 498,-72 498,-72 504,-72 510,-78 510,-84 510,-84 510,-96 510,-96 510,-102 504,-108 498,-108"/>
<text text-anchor="middle" x="462" y="-87.5" font-family="sans" font-size="10.00">report_step_star</text>
</g>
<!-- 2&#45;&gt;18 -->
<g id="edge34" class="edge">
<title>2&#45;&gt;18</title>
<path fill="none" stroke="grey" stroke-width="2" d="M315.13,-359.92C281.09,-318.68 204.31,-212.04 257,-144 274.87,-120.93 349.42,-106.09 403.48,-98.14"/>
<polygon fill="grey" stroke="grey" stroke-width="2" points="404.25,-101.57 413.65,-96.69 403.26,-94.64 404.25,-101.57"/>
</g>
<!-- 19 -->
<g id="node20" class="node">
<title>19</title>
<path fill="none" stroke="#d85656" stroke-width="2" d="M768,-108C768,-108 686,-108 686,-108 680,-108 674,-102 674,-96 674,-96 674,-84 674,-84 674,-78 680,-72 686,-72 686,-72 768,-72 768,-72 774,-72 780,-78 780,-84 780,-84 780,-96 780,-96 780,-102 774,-108 768,-108"/>
<text text-anchor="middle" x="727" y="-87.5" font-family="sans" font-size="10.00">report_library_one</text>
</g>
<!-- 2&#45;&gt;19 -->
<g id="edge39" class="edge">
<title>2&#45;&gt;19</title>
<path fill="none" stroke="grey" stroke-width="2" d="M374.19,-367.11C454.14,-346.8 622.45,-292.51 708,-180 721.41,-162.36 725.83,-137.34 727.09,-118.31"/>
<polygon fill="grey" stroke="grey" stroke-width="2" points="730.59,-118.31 727.5,-108.18 723.59,-118.03 730.59,-118.31"/>
</g>
<!-- 3 -->
<g id="node4" class="node">
<title>3</title>
<path fill="none" stroke="#5663d8" stroke-width="2" d="M876,-468C876,-468 810,-468 810,-468 804,-468 798,-462 798,-456 798,-456 798,-444 798,-444 798,-438 804,-432 810,-432 810,-432 876,-432 876,-432 882,-432 888,-438 888,-444 888,-444 888,-456 888,-456 888,-462 882,-468 876,-468"/>
<text text-anchor="middle" x="843" y="-447.5" font-family="sans" font-size="10.00">fastp_trim_one</text>
</g>
<!-- 3&#45;&gt;2 -->
<g id="edge13" class="edge">
<title>3&#45;&gt;2</title>
<path fill="none" stroke="grey" stroke-width="2" d="M797.92,-442.85C703.61,-429.98 485.8,-400.26 384.12,-386.38"/>
<polygon fill="grey" stroke="grey" stroke-width="2" points="384.44,-382.9 374.06,-385.01 383.5,-389.83 384.44,-382.9"/>
</g>
<!-- 16 -->
<g id="node17" class="node">
<title>16</title>
<path fill="none" stroke="#d8a456" stroke-width="2" d="M896,-108C896,-108 818,-108 818,-108 812,-108 806,-102 806,-96 806,-96 806,-84 806,-84 806,-78 812,-72 818,-72 818,-72 896,-72 896,-72 902,-72 908,-78 908,-84 908,-84 908,-96 908,-96 908,-102 902,-108 896,-108"/>
<text text-anchor="middle" x="857" y="-87.5" font-family="sans" font-size="10.00">report_step_fastp</text>
</g>
<!-- 3&#45;&gt;16 -->
<g id="edge30" class="edge">
<title>3&#45;&gt;16</title>
<path fill="none" stroke="grey" stroke-width="2" d="M888.26,-449.57C979.3,-448.12 1176,-430.66 1176,-307 1176,-307 1176,-307 1176,-233 1176,-192.55 1186.4,-171.78 1157,-144 1119.08,-108.16 976.14,-118.34 925,-108 922.69,-107.53 920.33,-107.04 917.96,-106.52"/>
<polygon fill="grey" stroke="grey" stroke-width="2" points="918.65,-103.09 908.13,-104.31 917.11,-109.92 918.65,-103.09"/>
</g>
<!-- 17 -->
<g id="node18" class="node">
<title>17</title>
<path fill="none" stroke="#88d856" stroke-width="2" d="M881,-180C881,-180 805,-180 805,-180 799,-180 793,-174 793,-168 793,-168 793,-156 793,-156 793,-150 799,-144 805,-144 805,-144 881,-144 881,-144 887,-144 893,-150 893,-156 893,-156 893,-168 893,-168 893,-174 887,-180 881,-180"/>
<text text-anchor="middle" x="843" y="-159.5" font-family="sans" font-size="10.00">fastp_fastqc_one</text>
</g>
<!-- 3&#45;&gt;17 -->
<g id="edge33" class="edge">
<title>3&#45;&gt;17</title>
<path fill="none" stroke="grey" stroke-width="2" d="M843,-431.97C843,-384.29 843,-249.18 843,-190.63"/>
<polygon fill="grey" stroke="grey" stroke-width="2" points="846.5,-190.31 843,-180.31 839.5,-190.31 846.5,-190.31"/>
</g>
<!-- 3&#45;&gt;19 -->
<g id="edge46" class="edge">
<title>3&#45;&gt;19</title>
<path fill="none" stroke="grey" stroke-width="2" d="M826.08,-431.85C803.13,-406.71 765,-357.35 765,-307 765,-307 765,-307 765,-233 765,-191.63 749.77,-145.72 738.59,-117.61"/>
<polygon fill="grey" stroke="grey" stroke-width="2" points="741.72,-116.02 734.69,-108.09 735.24,-118.67 741.72,-116.02"/>
</g>
<!-- 4 -->
<g id="node5" class="node">
<title>4</title>
<path fill="none" stroke="#56d882" stroke-width="2" d="M912,-540C912,-540 846,-540 846,-540 840,-540 834,-534 834,-528 834,-528 834,-516 834,-516 834,-510 840,-504 846,-504 846,-504 912,-504 912,-504 918,-504 924,-510 924,-516 924,-516 924,-528 924,-528 924,-534 918,-540 912,-540"/>
<text text-anchor="middle" x="879" y="-519.5" font-family="sans" font-size="10.00">reads_link_one</text>
</g>
<!-- 4&#45;&gt;3 -->
<g id="edge15" class="edge">
<title>4&#45;&gt;3</title>
<path fill="none" stroke="grey" stroke-width="2" d="M870.1,-503.7C866,-495.73 861.05,-486.1 856.51,-477.26"/>
<polygon fill="grey" stroke="grey" stroke-width="2" points="859.48,-475.4 851.8,-468.1 853.26,-478.6 859.48,-475.4"/>
</g>
<!-- 14 -->
<g id="node15" class="node">
<title>14</title>
<path fill="none" stroke="#59d856" stroke-width="2" d="M1136,-180C1136,-180 1090,-180 1090,-180 1084,-180 1078,-174 1078,-168 1078,-168 1078,-156 1078,-156 1078,-150 1084,-144 1090,-144 1090,-144 1136,-144 1136,-144 1142,-144 1148,-150 1148,-156 1148,-156 1148,-168 1148,-168 1148,-174 1142,-180 1136,-180"/>
<text text-anchor="middle" x="1113" y="-159.5" font-family="sans" font-size="10.00">fastqc_one</text>
</g>
<!-- 4&#45;&gt;14 -->
<g id="edge29" class="edge">
<title>4&#45;&gt;14</title>
<path fill="none" stroke="grey" stroke-width="2" d="M913.42,-503.87C953.41,-481.24 1014,-437.34 1014,-379 1014,-379 1014,-379 1014,-305 1014,-256.38 1053.54,-212.5 1082.65,-186.78"/>
<polygon fill="grey" stroke="grey" stroke-width="2" points="1085.22,-189.19 1090.54,-180.03 1080.66,-183.87 1085.22,-189.19"/>
</g>
<!-- 5 -->
<g id="node6" class="node">
<title>5</title>
<path fill="none" stroke="#d8b456" stroke-width="2" d="M352,-468C352,-468 308,-468 308,-468 302,-468 296,-462 296,-456 296,-456 296,-444 296,-444 296,-438 302,-432 308,-432 308,-432 352,-432 352,-432 358,-432 364,-438 364,-444 364,-444 364,-456 364,-456 364,-462 358,-468 352,-468"/>
<text text-anchor="middle" x="330" y="-447.5" font-family="sans" font-size="10.00">star_index</text>
</g>
<!-- 5&#45;&gt;2 -->
<g id="edge14" class="edge">
<title>5&#45;&gt;2</title>
<path fill="none" stroke="grey" stroke-width="2" d="M330,-431.7C330,-423.98 330,-414.71 330,-406.11"/>
<polygon fill="grey" stroke="grey" stroke-width="2" points="333.5,-406.1 330,-396.1 326.5,-406.1 333.5,-406.1"/>
</g>
<!-- 6 -->
<g id="node7" class="node">
<title>6</title>
<path fill="none" stroke="#5673d8" stroke-width="2" d="M469.5,-540C469.5,-540 386.5,-540 386.5,-540 380.5,-540 374.5,-534 374.5,-528 374.5,-528 374.5,-516 374.5,-516 374.5,-510 380.5,-504 386.5,-504 386.5,-504 469.5,-504 469.5,-504 475.5,-504 481.5,-510 481.5,-516 481.5,-516 481.5,-528 481.5,-528 481.5,-534 475.5,-540 469.5,-540"/>
<text text-anchor="middle" x="428" y="-519.5" font-family="sans" font-size="10.00">reference_set_dna</text>
</g>
<!-- 6&#45;&gt;1 -->
<g id="edge11" class="edge">
<title>6&#45;&gt;1</title>
<path fill="none" stroke="grey" stroke-width="2" d="M423.51,-503.85C413.8,-466.75 390.79,-378.81 379.09,-334.1"/>
<polygon fill="grey" stroke="grey" stroke-width="2" points="382.43,-333.02 376.51,-324.23 375.66,-334.79 382.43,-333.02"/>
</g>
<!-- 6&#45;&gt;5 -->
<g id="edge16" class="edge">
<title>6&#45;&gt;5</title>
<path fill="none" stroke="grey" stroke-width="2" d="M404.03,-503.88C391.45,-494.89 375.87,-483.76 362.25,-474.03"/>
<polygon fill="grey" stroke="grey" stroke-width="2" points="364.24,-471.15 354.07,-468.19 360.17,-476.85 364.24,-471.15"/>
</g>
<!-- 6&#45;&gt;8 -->
<g id="edge18" class="edge">
<title>6&#45;&gt;8</title>
<path fill="none" stroke="grey" stroke-width="2" d="M458.33,-503.96C495.04,-480.82 552,-435.79 552,-379 552,-379 552,-379 552,-305 552,-264.55 552.15,-251.63 533,-216 527.29,-205.37 518.8,-195.43 510.34,-187.1"/>
<polygon fill="grey" stroke="grey" stroke-width="2" points="512.67,-184.48 502.97,-180.21 507.88,-189.6 512.67,-184.48"/>
</g>
<!-- 7 -->
<g id="node8" class="node">
<title>7</title>
<path fill="none" stroke="#56d873" stroke-width="2" d="M344,-540C344,-540 266,-540 266,-540 260,-540 254,-534 254,-528 254,-528 254,-516 254,-516 254,-510 260,-504 266,-504 266,-504 344,-504 344,-504 350,-504 356,-510 356,-516 356,-516 356,-528 356,-528 356,-534 350,-540 344,-540"/>
<text text-anchor="middle" x="305" y="-519.5" font-family="sans" font-size="10.00">reference_set_gtf</text>
</g>
<!-- 7&#45;&gt;5 -->
<g id="edge17" class="edge">
<title>7&#45;&gt;5</title>
<path fill="none" stroke="grey" stroke-width="2" d="M311.18,-503.7C314,-495.81 317.39,-486.3 320.52,-477.55"/>
<polygon fill="grey" stroke="grey" stroke-width="2" points="323.82,-478.7 323.89,-468.1 317.23,-476.34 323.82,-478.7"/>
</g>
<!-- 8&#45;&gt;0 -->
<g id="edge7" class="edge">
<title>8&#45;&gt;0</title>
<path fill="none" stroke="grey" stroke-width="2" d="M497.46,-143.92C505.65,-134.22 514.7,-121.37 519,-108 525.61,-87.44 519.74,-63.46 512.84,-45.58"/>
<polygon fill="grey" stroke="grey" stroke-width="2" points="516.06,-44.2 508.97,-36.33 509.6,-46.91 516.06,-44.2"/>
</g>
<!-- 8&#45;&gt;18 -->
<g id="edge37" class="edge">
<title>8&#45;&gt;18</title>
<path fill="none" stroke="grey" stroke-width="2" d="M476.3,-143.7C474.19,-135.9 471.64,-126.51 469.28,-117.83"/>
<polygon fill="grey" stroke="grey" stroke-width="2" points="472.64,-116.84 466.64,-108.1 465.88,-118.67 472.64,-116.84"/>
</g>
<!-- 8&#45;&gt;19 -->
<g id="edge44" class="edge">
<title>8&#45;&gt;19</title>
<path fill="none" stroke="grey" stroke-width="2" d="M540.86,-143.97C578.2,-133.34 626.19,-119.69 664.09,-108.9"/>
<polygon fill="grey" stroke="grey" stroke-width="2" points="665.33,-112.19 673.99,-106.08 663.42,-105.45 665.33,-112.19"/>
</g>
<!-- 9&#45;&gt;8 -->
<g id="edge20" class="edge">
<title>9&#45;&gt;8</title>
<path fill="none" stroke="grey" stroke-width="2" d="M466.7,-215.7C468.81,-207.9 471.36,-198.51 473.72,-189.83"/>
<polygon fill="grey" stroke="grey" stroke-width="2" points="477.12,-190.67 476.36,-180.1 470.36,-188.84 477.12,-190.67"/>
</g>
<!-- 9&#45;&gt;10 -->
<g id="edge23" class="edge">
<title>9&#45;&gt;10</title>
<path fill="none" stroke="grey" stroke-width="2" d="M502.85,-215.88C525.78,-206.26 554.58,-194.19 578.87,-184.01"/>
<polygon fill="grey" stroke="grey" stroke-width="2" points="580.41,-187.16 588.28,-180.07 577.7,-180.71 580.41,-187.16"/>
</g>
<!-- 9&#45;&gt;11 -->
<g id="edge25" class="edge">
<title>9&#45;&gt;11</title>
<path fill="none" stroke="grey" stroke-width="2" d="M430.69,-215.88C413.8,-206.64 392.75,-195.13 374.62,-185.21"/>
<polygon fill="grey" stroke="grey" stroke-width="2" points="375.89,-181.92 365.43,-180.19 372.53,-188.06 375.89,-181.92"/>
</g>
<!-- 10&#45;&gt;0 -->
<g id="edge4" class="edge">
<title>10&#45;&gt;0</title>
<path fill="none" stroke="grey" stroke-width="2" d="M613.44,-143.87C590.78,-118.92 548.56,-72.45 522.5,-43.77"/>
<polygon fill="grey" stroke="grey" stroke-width="2" points="524.93,-41.24 515.62,-36.19 519.75,-45.94 524.93,-41.24"/>
</g>
<!-- 10&#45;&gt;18 -->
<g id="edge35" class="edge">
<title>10&#45;&gt;18</title>
<path fill="none" stroke="grey" stroke-width="2" d="M588.15,-143.88C565.22,-134.26 536.42,-122.19 512.13,-112.01"/>
<polygon fill="grey" stroke="grey" stroke-width="2" points="513.3,-108.71 502.72,-108.07 510.59,-115.16 513.3,-108.71"/>
</g>
<!-- 10&#45;&gt;19 -->
<g id="edge40" class="edge">
<title>10&#45;&gt;19</title>
<path fill="none" stroke="grey" stroke-width="2" d="M652.97,-143.88C665.55,-134.89 681.13,-123.76 694.75,-114.03"/>
<polygon fill="grey" stroke="grey" stroke-width="2" points="696.83,-116.85 702.93,-108.19 692.76,-111.15 696.83,-116.85"/>
</g>
<!-- 11&#45;&gt;0 -->
<g id="edge8" class="edge">
<title>11&#45;&gt;0</title>
<path fill="none" stroke="grey" stroke-width="2" d="M344.65,-143.95C357.28,-124.72 379.82,-93.34 405,-72 422.62,-57.06 445.1,-44.3 463.76,-35.04"/>
<polygon fill="grey" stroke="grey" stroke-width="2" points="465.37,-38.15 472.85,-30.66 462.33,-31.85 465.37,-38.15"/>
</g>
<!-- 11&#45;&gt;18 -->
<g id="edge38" class="edge">
<title>11&#45;&gt;18</title>
<path fill="none" stroke="grey" stroke-width="2" d="M365.31,-143.88C382.2,-134.64 403.25,-123.13 421.38,-113.21"/>
<polygon fill="grey" stroke="grey" stroke-width="2" points="423.47,-116.06 430.57,-108.19 420.11,-109.92 423.47,-116.06"/>
</g>
<!-- 11&#45;&gt;19 -->
<g id="edge41" class="edge">
<title>11&#45;&gt;19</title>
<path fill="none" stroke="grey" stroke-width="2" d="M402.4,-145.71C405.3,-145.12 408.18,-144.55 411,-144 498.34,-127.05 599.9,-110.59 663.81,-100.62"/>
<polygon fill="grey" stroke="grey" stroke-width="2" points="664.39,-104.08 673.73,-99.08 663.32,-97.16 664.39,-104.08"/>
</g>
<!-- 12&#45;&gt;0 -->
<g id="edge10" class="edge">
<title>12&#45;&gt;0</title>
<path fill="none" stroke="grey" stroke-width="2" d="M70.25,-215.77C77.57,-182.09 98.72,-107.71 148,-72 197.75,-35.95 382.55,-23.93 462.61,-20.36"/>
<polygon fill="grey" stroke="grey" stroke-width="2" points="462.9,-23.85 472.74,-19.92 462.6,-16.85 462.9,-23.85"/>
</g>
<!-- 13 -->
<g id="node14" class="node">
<title>13</title>
<path fill="none" stroke="#d88556" stroke-width="2" d="M1026,-108C1026,-108 946,-108 946,-108 940,-108 934,-102 934,-96 934,-96 934,-84 934,-84 934,-78 940,-72 946,-72 946,-72 1026,-72 1026,-72 1032,-72 1038,-78 1038,-84 1038,-84 1038,-96 1038,-96 1038,-102 1032,-108 1026,-108"/>
<text text-anchor="middle" x="986" y="-87.5" font-family="sans" font-size="10.00">report_step_reads</text>
</g>
<!-- 13&#45;&gt;0 -->
<g id="edge5" class="edge">
<title>13&#45;&gt;0</title>
<path fill="none" stroke="grey" stroke-width="2" d="M933.77,-75.46C928.13,-74.2 922.46,-73.02 917,-72 778.18,-46.17 611,-29.11 537.62,-22.32"/>
<polygon fill="grey" stroke="grey" stroke-width="2" points="537.77,-18.82 527.49,-21.39 537.13,-25.79 537.77,-18.82"/>
</g>
<!-- 14&#45;&gt;13 -->
<g id="edge27" class="edge">
<title>14&#45;&gt;13</title>
<path fill="none" stroke="grey" stroke-width="2" d="M1081.93,-143.88C1065.17,-134.64 1044.29,-123.13 1026.3,-113.21"/>
<polygon fill="grey" stroke="grey" stroke-width="2" points="1027.63,-109.95 1017.19,-108.19 1024.26,-116.08 1027.63,-109.95"/>
</g>
<!-- 14&#45;&gt;19 -->
<g id="edge45" class="edge">
<title>14&#45;&gt;19</title>
<path fill="none" stroke="grey" stroke-width="2" d="M1077.56,-146.21C1075.02,-145.39 1072.49,-144.64 1070,-144 951.54,-113.27 917.3,-130.47 797,-108 794.8,-107.59 792.57,-107.15 790.32,-106.7"/>
<polygon fill="grey" stroke="grey" stroke-width="2" points="790.89,-103.24 780.38,-104.59 789.43,-110.09 790.89,-103.24"/>
</g>
<!-- 15 -->
<g id="node16" class="node">
<title>15</title>
<path fill="none" stroke="#5692d8" stroke-width="2" d="M1048.5,-180C1048.5,-180 923.5,-180 923.5,-180 917.5,-180 911.5,-174 911.5,-168 911.5,-168 911.5,-156 911.5,-156 911.5,-150 917.5,-144 923.5,-144 923.5,-144 1048.5,-144 1048.5,-144 1054.5,-144 1060.5,-150 1060.5,-156 1060.5,-156 1060.5,-168 1060.5,-168 1060.5,-174 1054.5,-180 1048.5,-180"/>
<text text-anchor="middle" x="986" y="-159.5" font-family="sans" font-size="10.00">report_generate_config_file</text>
</g>
<!-- 15&#45;&gt;13 -->
<g id="edge28" class="edge">
<title>15&#45;&gt;13</title>
<path fill="none" stroke="grey" stroke-width="2" d="M986,-143.7C986,-135.98 986,-126.71 986,-118.11"/>
<polygon fill="grey" stroke="grey" stroke-width="2" points="989.5,-118.1 986,-108.1 982.5,-118.1 989.5,-118.1"/>
</g>
<!-- 15&#45;&gt;16 -->
<g id="edge31" class="edge">
<title>15&#45;&gt;16</title>
<path fill="none" stroke="grey" stroke-width="2" d="M954.44,-143.88C937.34,-134.6 916.02,-123.03 897.68,-113.08"/>
<polygon fill="grey" stroke="grey" stroke-width="2" points="899.14,-109.88 888.68,-108.19 895.8,-116.04 899.14,-109.88"/>
</g>
<!-- 15&#45;&gt;18 -->
<g id="edge36" class="edge">
<title>15&#45;&gt;18</title>
<path fill="none" stroke="grey" stroke-width="2" d="M911.4,-145.58C908.23,-145.03 905.08,-144.5 902,-144 765.82,-122.05 604.6,-104.85 520.18,-96.51"/>
<polygon fill="grey" stroke="grey" stroke-width="2" points="520.32,-93.01 510.03,-95.52 519.64,-99.98 520.32,-93.01"/>
</g>
<!-- 15&#45;&gt;19 -->
<g id="edge43" class="edge">
<title>15&#45;&gt;19</title>
<path fill="none" stroke="grey" stroke-width="2" d="M922.97,-143.97C882.58,-133.05 830.35,-118.93 789.97,-108.02"/>
<polygon fill="grey" stroke="grey" stroke-width="2" points="790.8,-104.62 780.24,-105.39 788.98,-111.38 790.8,-104.62"/>
</g>
<!-- 16&#45;&gt;0 -->
<g id="edge6" class="edge">
<title>16&#45;&gt;0</title>
<path fill="none" stroke="grey" stroke-width="2" d="M805.84,-75.84C800.17,-74.49 794.47,-73.18 789,-72 699.07,-52.53 592.4,-34.19 537.22,-25.05"/>
<polygon fill="grey" stroke="grey" stroke-width="2" points="537.64,-21.57 527.21,-23.4 536.51,-28.48 537.64,-21.57"/>
</g>
<!-- 17&#45;&gt;16 -->
<g id="edge32" class="edge">
<title>17&#45;&gt;16</title>
<path fill="none" stroke="grey" stroke-width="2" d="M846.46,-143.7C848,-135.98 849.86,-126.71 851.58,-118.11"/>
<polygon fill="grey" stroke="grey" stroke-width="2" points="855.05,-118.6 853.58,-108.1 848.19,-117.22 855.05,-118.6"/>
</g>
<!-- 17&#45;&gt;19 -->
<g id="edge42" class="edge">
<title>17&#45;&gt;19</title>
<path fill="none" stroke="grey" stroke-width="2" d="M814.62,-143.88C799.46,-134.72 780.59,-123.34 764.26,-113.48"/>
<polygon fill="grey" stroke="grey" stroke-width="2" points="765.86,-110.36 755.49,-108.19 762.24,-116.35 765.86,-110.36"/>
</g>
<!-- 18&#45;&gt;0 -->
<g id="edge1" class="edge">
<title>18&#45;&gt;0</title>
<path fill="none" stroke="grey" stroke-width="2" d="M471.39,-71.7C475.76,-63.64 481.06,-53.89 485.9,-44.98"/>
<polygon fill="grey" stroke="grey" stroke-width="2" points="489.02,-46.56 490.71,-36.1 482.87,-43.22 489.02,-46.56"/>
</g>
<!-- 19&#45;&gt;0 -->
<g id="edge2" class="edge">
<title>19&#45;&gt;0</title>
<path fill="none" stroke="grey" stroke-width="2" d="M673.78,-72.59C631.74,-59.62 574.15,-41.86 537,-30.41"/>
<polygon fill="grey" stroke="grey" stroke-width="2" points="537.69,-26.96 527.1,-27.36 535.62,-33.65 537.69,-26.96"/>
</g>
</g>
</svg>
